<svg id="visual" viewBox="0 0 960 540" width="960" height="540" xmlns="http://www.w3.org/2000/svg" xmlns:xlink="http://www.w3.org/1999/xlink" version="1.1"><rect x="0" y="0" width="960" height="540" fill="#001220"></rect><path d="M0 317L22.8 321.5C45.7 326 91.3 335 137 342C182.7 349 228.3 354 274 362.2C319.7 370.3 365.3 381.7 411.2 387.8C457 394 503 395 548.8 384C594.7 373 640.3 350 686 340.3C731.7 330.7 777.3 334.3 823 347C868.7 359.7 914.3 381.3 937.2 392.2L960 403L960 541L937.2 541C914.3 541 868.7 541 823 541C777.3 541 731.7 541 686 541C640.3 541 594.7 541 548.8 541C503 541 457 541 411.2 541C365.3 541 319.7 541 274 541C228.3 541 182.7 541 137 541C91.3 541 45.7 541 22.8 541L0 541Z" fill="#fa7268"></path><path d="M0 363L22.8 374C45.7 385 91.3 407 137 410.5C182.7 414 228.3 399 274 391.2C319.7 383.3 365.3 382.7 411.2 377.8C457 373 503 364 548.8 363.3C594.7 362.7 640.3 370.3 686 372.5C731.7 374.7 777.3 371.3 823 377.5C868.7 383.7 914.3 399.3 937.2 407.2L960 415L960 541L937.2 541C914.3 541 868.7 541 823 541C777.3 541 731.7 541 686 541C640.3 541 594.7 541 548.8 541C503 541 457 541 411.2 541C365.3 541 319.7 541 274 541C228.3 541 182.7 541 137 541C91.3 541 45.7 541 22.8 541L0 541Z" fill="#ef5f67"></path><path d="M0 436L22.8 439.8C45.7 443.7 91.3 451.3 137 450.7C182.7 450 228.3 441 274 433.3C319.7 425.7 365.3 419.3 411.2 423.5C457 427.7 503 442.3 548.8 441.3C594.7 440.3 640.3 423.7 686 418.2C731.7 412.7 777.3 418.3 823 422C868.7 425.7 914.3 427.3 937.2 428.2L960 429L960 541L937.2 541C914.3 541 868.7 541 823 541C777.3 541 731.7 541 686 541C640.3 541 594.7 541 548.8 541C503 541 457 541 411.2 541C365.3 541 319.7 541 274 541C228.3 541 182.7 541 137 541C91.3 541 45.7 541 22.8 541L0 541Z" fill="#e34c67"></path><path d="M0 473L22.8 475C45.7 477 91.3 481 137 480.2C182.7 479.3 228.3 473.7 274 473.7C319.7 473.7 365.3 479.3 411.2 482.2C457 485 503 485 548.8 483C594.7 481 640.3 477 686 475.8C731.7 474.7 777.3 476.3 823 477.5C868.7 478.7 914.3 479.3 937.2 479.7L960 480L960 541L937.2 541C914.3 541 868.7 541 823 541C777.3 541 731.7 541 686 541C640.3 541 594.7 541 548.8 541C503 541 457 541 411.2 541C365.3 541 319.7 541 274 541C228.3 541 182.7 541 137 541C91.3 541 45.7 541 22.8 541L0 541Z" fill="#d53867"></path><path d="M0 502L22.8 498C45.7 494 91.3 486 137 483.8C182.7 481.7 228.3 485.3 274 490C319.7 494.7 365.3 500.3 411.2 502C457 503.7 503 501.3 548.8 502.3C594.7 503.3 640.3 507.7 686 505.7C731.7 503.7 777.3 495.3 823 492.8C868.7 490.3 914.3 493.7 937.2 495.3L960 497L960 541L937.2 541C914.3 541 868.7 541 823 541C777.3 541 731.7 541 686 541C640.3 541 594.7 541 548.8 541C503 541 457 541 411.2 541C365.3 541 319.7 541 274 541C228.3 541 182.7 541 137 541C91.3 541 45.7 541 22.8 541L0 541Z" fill="#c62368"></path></svg>