<svg id="visual" viewBox="0 0 960 540" width="960" height="540" xmlns="http://www.w3.org/2000/svg" xmlns:xlink="http://www.w3.org/1999/xlink" version="1.1"><path d="M0 109L87 109L87 98L175 98L175 104L262 104L262 87L349 87L349 206L436 206L436 185L524 185L524 93L611 93L611 217L698 217L698 71L785 71L785 87L873 87L873 93L960 93L960 109L960 0L960 0L873 0L873 0L785 0L785 0L698 0L698 0L611 0L611 0L524 0L524 0L436 0L436 0L349 0L349 0L262 0L262 0L175 0L175 0L87 0L87 0L0 0Z" fill="#fa7268"></path><path d="M0 266L87 266L87 201L175 201L175 185L262 185L262 190L349 190L349 320L436 320L436 320L524 320L524 174L611 174L611 309L698 309L698 179L785 179L785 174L873 174L873 136L960 136L960 179L960 107L960 91L873 91L873 85L785 85L785 69L698 69L698 215L611 215L611 91L524 91L524 183L436 183L436 204L349 204L349 85L262 85L262 102L175 102L175 96L87 96L87 107L0 107Z" fill="#ea5e66"></path><path d="M0 433L87 433L87 433L175 433L175 384L262 384L262 352L349 352L349 411L436 411L436 411L524 411L524 363L611 363L611 411L698 411L698 406L785 406L785 401L873 401L873 384L960 384L960 460L960 177L960 134L873 134L873 172L785 172L785 177L698 177L698 307L611 307L611 172L524 172L524 318L436 318L436 318L349 318L349 188L262 188L262 183L175 183L175 199L87 199L87 264L0 264Z" fill="#d84a64"></path><path d="M0 498L87 498L87 476L175 476L175 476L262 476L262 438L349 438L349 465L436 465L436 476L524 476L524 428L611 428L611 487L698 487L698 455L785 455L785 449L873 449L873 476L960 476L960 498L960 458L960 382L873 382L873 399L785 399L785 404L698 404L698 409L611 409L611 361L524 361L524 409L436 409L436 409L349 409L349 350L262 350L262 382L175 382L175 431L87 431L87 431L0 431Z" fill="#c53762"></path><path d="M0 541L87 541L87 541L175 541L175 541L262 541L262 541L349 541L349 541L436 541L436 541L524 541L524 541L611 541L611 541L698 541L698 541L785 541L785 541L873 541L873 541L960 541L960 541L960 496L960 474L873 474L873 447L785 447L785 453L698 453L698 485L611 485L611 426L524 426L524 474L436 474L436 463L349 463L349 436L262 436L262 474L175 474L175 474L87 474L87 496L0 496Z" fill="#b0235f"></path></svg>